<?xml version="1.0" encoding="UTF-8"?>
<svg width="833px" height="96px" viewBox="0 0 833 96" version="1.1" xmlns="http://www.w3.org/2000/svg" xmlns:xlink="http://www.w3.org/1999/xlink">
    <!-- Generator: Sketch 56.3 (81716) - https://sketch.com -->
    <title>Group 9</title>
    <desc>Created with Sketch.</desc>
    <defs>
        <linearGradient x1="50%" y1="0%" x2="50%" y2="100%" id="linearGradient-1">
            <stop stop-color="#FFB700" offset="0%"></stop>
            <stop stop-color="#FF8000" offset="100%"></stop>
        </linearGradient>
        <linearGradient x1="50%" y1="0%" x2="50%" y2="100%" id="linearGradient-2">
            <stop stop-color="#26CDFC" offset="0%"></stop>
            <stop stop-color="#119FF7" offset="100%"></stop>
        </linearGradient>
        <linearGradient x1="50%" y1="0%" x2="50%" y2="100%" id="linearGradient-3">
            <stop stop-color="#F91F1F" offset="0%"></stop>
            <stop stop-color="#F00D0D" offset="100%"></stop>
        </linearGradient>
        <linearGradient x1="50%" y1="0%" x2="50%" y2="100%" id="linearGradient-4">
            <stop stop-color="#5DE15C" offset="0%"></stop>
            <stop stop-color="#30C02F" offset="100%"></stop>
        </linearGradient>
    </defs>
    <g id="Page-1" stroke="none" stroke-width="1" fill="none" fill-rule="evenodd">
        <g id="Group-9" transform="translate(-5.236024, 0.000000)">
            <path d="M102.236024,49.1584699 C102.236024,32.3606557 115.021104,20 131.683627,20 C148.450945,20 161.236024,32.4663024 161.236024,49.1584699 C161.236024,65.8506375 148.870127,78 131.683627,78 C114.601921,78 102.236024,65.8506375 102.236024,49.1584699 Z M116.236024,49.157377 C116.236024,58.495082 122.612331,65 131.18376,65 C139.859718,65 146.236024,58.495082 146.236024,49.157377 C146.236024,39.8196721 139.859718,33 131.18376,33 C122.507801,33 116.236024,39.7147541 116.236024,49.157377 Z M166.236024,96 L166.236024,21.3665284 L179.932882,21.3665284 L179.932882,27.1479945 C181.407928,25.2558783 186.886671,20 196.263751,20 C212.067817,20 223.236024,31.9834025 223.236024,48.802213 C223.236024,65.8312586 212.910701,77.7095436 197.106634,77.7095436 C187.624194,77.7095436 182.145451,72.4536653 180.775766,70.6666667 L180.775766,96 L166.236024,96 Z M180.236024,48.842623 C180.236024,59.1245902 186.295726,65 194.236024,65 C202.594233,65 208.236024,58.3901639 208.236024,48.842623 C208.236024,39.0852459 202.385278,33 194.236024,33 C185.459905,33 180.236024,40.1344262 180.236024,48.842623 Z M225.236024,49.1584699 C225.236024,32.4663024 236.565436,20 252.341907,20 C269.494848,20 279.236024,31.4098361 279.236024,49.4754098 C279.236024,50.5318761 279.236024,51.5883424 279.130142,52.6448087 L240.165436,52.6448087 C240.483083,60.0400729 246.412495,65.3224044 254.565436,65.3224044 C262.083083,65.3224044 266.42426,60.8852459 268.012495,58.56102 L277.647789,65.8506375 C275.530142,69.7595628 268.118377,78 254.353671,78 C236.565436,78 225.236024,65.7449909 225.236024,49.1584699 Z M240.236024,43 L264.236024,43 C263.916024,36.3584906 259.009358,32 252.289358,32 C245.356024,32 240.876024,36.7735849 240.236024,43 Z M313.236024,20 L313.236024,34.6268657 C302.529931,34.6268657 298.58011,41.3134328 298.58011,52.1791045 L298.58011,76 L284.236024,76 L284.236024,21.358209 L298.268283,21.358209 L298.268283,29.2985075 C300.658964,23.8656716 306.063981,20 313.236024,20 Z M315.236024,59.5118397 C315.236024,48.6302368 323.799901,41.2349727 336.69858,41.2349727 C342.302104,41.2349727 346.636905,42.9253188 348.645716,44.298725 L348.645716,40.7067395 C348.645716,35.8469945 345.051002,32.571949 338.601663,32.571949 C333.103866,32.571949 328.028976,34.3679417 323.905628,36.4808743 L318.407831,26.5500911 C323.376994,23.1693989 331.729417,20 340.187566,20 C357.949681,20 363.236024,29.2969035 363.236024,41.6575592 L363.236024,76.6265938 L350.337346,76.6265938 L349.385804,73.0346084 C346.531179,76.0983607 342.302104,78 335.958491,78 C324.751443,78 315.236024,71.132969 315.236024,59.5118397 Z M330.236024,59.5517241 C330.236024,64 334.329947,67 339.788511,67 C345.247074,67 349.236024,64.1034483 349.236024,59.5517241 C349.236024,54.7931034 345.247074,52 339.683538,52 C334.120002,52 330.236024,55.1034483 330.236024,59.5517241 Z M372.140786,21.515625 L372.140786,10 L386.480922,10 L386.480922,21.515625 L396.814256,21.515625 L396.814256,33.240625 L386.480922,33.240625 L386.480922,54.3875 C386.480922,62.553125 389.011535,64.228125 394.59997,64.228125 C395.54895,64.228125 396.07616,64.228125 397.236024,64.1234375 L397.236024,76.4765625 C397.236024,76.4765625 395.021739,77 391.014936,77 C377.834664,77 372.035344,69.671875 372.035344,54.80625 L372.035344,33.240625 L366.236024,33.240625 L366.236024,21.515625 L372.140786,21.515625 Z M403.236024,77 L403.236024,22 L417.236024,22 L417.236024,77 L403.236024,77 Z M401.236024,8.5 C401.236024,3.65822785 404.931677,0 409.683229,0 C414.540372,0 418.236024,3.65822785 418.236024,8.5 C418.236024,13.3417722 414.540372,17 409.683229,17 C404.931677,17 401.236024,13.3417722 401.236024,8.5 Z M423.236024,49.1584699 C423.236024,32.3606557 436.021104,20 452.683627,20 C469.450945,20 482.236024,32.4663024 482.236024,49.1584699 C482.236024,65.8506375 469.870127,78 452.683627,78 C435.601921,78 423.236024,65.8506375 423.236024,49.1584699 Z M437.236024,49.157377 C437.236024,58.495082 443.612331,65 452.18376,65 C460.859718,65 467.236024,58.495082 467.236024,49.157377 C467.236024,39.8196721 460.859718,33 452.18376,33 C443.507801,33 437.236024,39.7147541 437.236024,49.157377 Z M516.183393,20 C531.867603,20 535.236024,32.8507463 535.236024,44.4477612 L535.236024,76 L520.709709,76 L520.709709,42.7761194 C520.709709,36.7164179 516.499182,32.9552239 511.551814,32.9552239 C505.551814,32.9552239 501.76234,37.3432836 501.76234,43.1940299 L501.76234,76 L487.236024,76 L487.236024,21.358209 L501.446551,21.358209 L501.446551,27.7313433 C503.76234,23.9701493 509.025498,20 516.183393,20 Z M644.236024,39.9552239 L644.236024,76 L629.826386,76 L629.826386,43.2985075 C629.826386,36.8208955 626.589438,32.9552239 621.264137,32.9552239 C616.043253,32.9552239 612.388635,36.8208955 612.388635,43.4029851 L612.388635,76 L597.978996,76 L597.978996,42.7761194 C597.978996,36.6119403 594.846466,32.9552239 589.521165,32.9552239 C584.404699,32.9552239 580.645663,36.8208955 580.645663,43.2985075 L580.645663,76 L566.236024,76 L566.236024,21.358209 L580.33241,21.358209 L580.33241,27.7313433 C582.316346,23.9701493 587.119559,20 594.533213,20 C601.529197,20 606.645663,23.1343284 609.46494,28.1492537 C612.701888,23.1343284 618.340442,20 625.649679,20 C638.075382,20 644.236024,28.2537313 644.236024,39.9552239 Z M649.236024,49.1584699 C649.236024,32.4663024 660.565436,20 676.341907,20 C693.494848,20 703.236024,31.4098361 703.236024,49.4754098 C703.236024,50.5318761 703.236024,51.5883424 703.130142,52.6448087 L664.165436,52.6448087 C664.483083,60.0400729 670.412495,65.3224044 678.565436,65.3224044 C686.083083,65.3224044 690.42426,60.8852459 692.012495,58.56102 L701.647789,65.8506375 C699.530142,69.7595628 692.118377,78 678.353671,78 C660.565436,78 649.236024,65.7449909 649.236024,49.1584699 Z M664.236024,43 L688.236024,43 C687.916024,36.3584906 683.009358,32 676.289358,32 C669.356024,32 664.876024,36.7735849 664.236024,43 Z M762.236024,1 L762.236024,76.6399457 L748.539167,76.6399457 L748.539167,70.9904891 C747.064121,72.7690217 741.585377,78 732.208298,78 C716.404231,78 705.236024,66.1779891 705.236024,49.3342391 C705.236024,32.3858696 715.561348,20.5638587 731.365414,20.5638587 C740.847854,20.5638587 746.326597,25.794837 747.696283,27.6779891 L747.696283,1 L762.236024,1 Z M748.236024,49.157377 C748.236024,38.8754098 742.176323,33 734.236024,33 C725.877815,33 720.236024,39.6098361 720.236024,49.157377 C720.236024,58.9147541 726.086771,65 734.236024,65 C743.012144,65 748.236024,57.8655738 748.236024,49.157377 Z M770.236024,77 L770.236024,22 L784.236024,22 L784.236024,77 L770.236024,77 Z M769.236024,8.5 C769.236024,3.65822785 772.931677,0 777.683229,0 C782.540372,0 786.236024,3.65822785 786.236024,8.5 C786.236024,13.3417722 782.540372,17 777.683229,17 C772.931677,17 769.236024,13.3417722 769.236024,8.5 Z M790.236024,59.5118397 C790.236024,48.6302368 798.799901,41.2349727 811.69858,41.2349727 C817.302104,41.2349727 821.636905,42.9253188 823.645716,44.298725 L823.645716,40.7067395 C823.645716,35.8469945 820.051002,32.571949 813.601663,32.571949 C808.103866,32.571949 803.028976,34.3679417 798.905628,36.4808743 L793.407831,26.5500911 C798.376994,23.1693989 806.729417,20 815.187566,20 C832.949681,20 838.236024,29.2969035 838.236024,41.6575592 L838.236024,76.6265938 L825.337346,76.6265938 L824.385804,73.0346084 C821.531179,76.0983607 817.302104,78 810.958491,78 C799.751443,78 790.236024,71.132969 790.236024,59.5118397 Z M804.236024,59.5517241 C804.236024,64 808.329947,67 813.788511,67 C819.247074,67 823.236024,64.1034483 823.236024,59.5517241 C823.236024,54.7931034 819.247074,52 813.683538,52 C808.120002,52 804.236024,55.1034483 804.236024,59.5517241 Z" id="operationmedia" fill="#FFFFFF" fill-rule="nonzero"></path>
            <g id="Group-8" transform="translate(41.000000, 49.472066) rotate(-4.000000) translate(-41.000000, -49.472066) translate(3.000000, 5.972066)">
                <circle id="Oval" fill="url(#linearGradient-1)" cx="22.4253716" cy="64.637077" r="21.5"></circle>
                <circle id="Oval" fill="url(#linearGradient-2)" cx="60" cy="61" r="11"></circle>
                <circle id="Oval" fill="url(#linearGradient-3)" cx="15.9302435" cy="27.9975641" r="11"></circle>
                <circle id="Oval" fill="url(#linearGradient-4)" cx="53.5721924" cy="22.4326795" r="21.5"></circle>
            </g>
        </g>
    </g>
</svg>